# xmcd
#
# Track frame offsets:
#	183
#	16458
#	32820
#	49075
#	65458
#	77760
#	98720
#	114103
#	135383
#	149823
#	167083
#	183358
#	198558
#	214545
#
# Disc length: 2995 seconds
#
# Revision: 0
# Processed by: cddbd v1.4PL0 Copyright (c) Steve Scherf et al.
# Submitted via: EasyCDDAExtractor 5.0.5.1
#
DISCID=c00bb10e
DTITLE=Big Bill Broonzy - Feelin' Low Down
DYEAR=1989
DGENRE=blues
TTITLE0=House Rent Stomp (Alt take)
TTITLE1=In The Evening (Alt take)
TTITLE2=The Moppin Blues
TTITLE3=Hey Hey Baby
TTITLE4=Black, Brown And White
TTITLE5=Back Water Blues
TTITLE6=Low Down Blues
TTITLE7=Feelin' Low Down
TTITLE8=What I Uused To Do
TTITLE9=Make My Gataway
TTITLE10=Blues In 1890
TTITLE11=Lonesome Road Blues (Alt take)
TTITLE12=When Did You Leave Heaven
TTITLE13=Feelin' So Good
EXTD=
EXTT0=
EXTT1=
EXTT2=
EXTT3=
EXTT4=
EXTT5=
EXTT6=
EXTT7=
EXTT8=
EXTT9=
EXTT10=
EXTT11=
EXTT12=
EXTT13=
PLAYORDER=
